REM MD5 78e2072a72c95a38ed29d2883604382d
FILE "High Heat Baseball 2000 (USA).bin" BINARY
  TRACK 01 MODE2/2352
    INDEX 01 00:00:00
  TRACK 02 AUDIO
    INDEX 00 13:37:43
    INDEX 01 13:39:43
  TRACK 03 AUDIO
    INDEX 00 19:21:55
    INDEX 01 19:23:55
REM LEADOUT 23:45:42
